<svg xmlns="http://www.w3.org/2000/svg" xmlns:xlink="http://www.w3.org/1999/xlink" id="Layer_1" x="0px" y="0px" width="95px" height="95px" viewBox="0 0 95 95" xml:space="preserve">
<g>
	<path fill="#00457C" d="M93,79c0,8.284-6.716,15-15,15H16C7.716,94,1,87.284,1,79V17C1,8.716,7.716,2,16,2h62   c8.284,0,15,6.716,15,15V79z"/>
	<g>
		<g>
			
				<line fill="none" stroke="#FFFFFF" stroke-width="3" stroke-linecap="round" stroke-linejoin="round" stroke-miterlimit="10" x1="11.396" y1="68.343" x2="30.353" y2="68.343"/>
			
				<line fill="none" stroke="#FFFFFF" stroke-width="3" stroke-linecap="round" stroke-linejoin="round" stroke-miterlimit="10" x1="11.396" y1="74.195" x2="30.353" y2="74.195"/>
			
				<line fill="none" stroke="#FFFFFF" stroke-width="3" stroke-linecap="round" stroke-linejoin="round" stroke-miterlimit="10" x1="11.396" y1="80.044" x2="30.353" y2="80.044"/>
		</g>
		<g>
			<g>
				<defs>
					<rect id="SVGID_1_" x="9.5" y="23.719" width="12.852" height="35.989"/>
				</defs>
				<clipPath id="SVGID_2_">
					<use xlink:href="#SVGID_1_"/>
				</clipPath>
				<g clip-path="url(#SVGID_2_)">
					<path fill="#3FB0FB" d="M2.559-7.013C-4.845-13.136-12.412-18.92-19.835-23.99c-5.742,4.973-10.346,11.221-13.372,18.303       c4.74,4.751,9.484,9.145,14.195,13.209C-9.428,3.464-2.475-1.618,2.559-7.013z"/>
					<path fill="#27E7D8" d="M2.559-7.013C-2.475-1.618-9.428,3.464-19.012,7.521c14.416,12.441,28.5,21.794,41.049,28.771       c4.633-4.774,8.683-9.518,12.222-14.155C24.813,12.51,13.876,2.352,2.559-7.013z"/>
					<path fill="#6DCB13" d="M2.559-7.013c11.317,9.364,22.255,19.522,31.7,29.15C40.255,14.279,44.783,6.72,48.202-0.191       C31.948-3.341,18.934-9.265,8.938-15.553C7.262-12.688,5.169-9.809,2.559-7.013z"/>
					<path fill="#FEB91A" d="M22.037,36.293C9.488,29.315-4.596,19.963-19.012,7.521c-5.244,2.223-11.277,4.135-18.212,5.627       c-0.006,0.307-0.013,0.614-0.013,0.922c0,5.539,0.898,10.869,2.551,15.853c19.48,2.12,33.268,9.992,42.927,19.146       C13.336,44.815,17.917,40.542,22.037,36.293z"/>
					<path fill="#EF6FC8" d="M34.259,22.138c7.653,7.799,14.327,15.252,19.438,21.648c6.101-8.328,9.709-18.601,9.709-29.716       c0-4.272-0.534-8.423-1.537-12.385c-4.789-0.398-9.344-1.039-13.667-1.877C44.783,6.72,40.255,14.279,34.259,22.138z"/>
					<path fill="#3FB0FB" d="M48.202-0.191c4.323,0.838,8.878,1.479,13.667,1.877c-1.521-6.005-4.12-11.581-7.583-16.508       C52.807-10.435,50.83-5.504,48.202-0.191z"/>
					<path fill="#0844C7" d="M22.037,36.293c10.318,5.739,19.601,9.873,27.178,12.801c1.611-1.663,3.11-3.438,4.482-5.308       c-5.111-6.396-11.785-13.85-19.438-21.648C30.72,26.775,26.67,31.519,22.037,36.293z"/>
					<path fill="#FE2D15" d="M-34.686,29.923c4.549,13.711,14.832,24.804,28.008,30.438c5.408-3.723,10.367-7.498,14.919-11.293       C-1.418,39.915-15.205,32.043-34.686,29.923z"/>
					<path fill="#27E7D8" d="M8.241,49.066c5.067,4.803,8.996,9.955,12.015,14.814c11.297-1.613,21.383-6.975,28.959-14.788       c-7.577-2.928-16.859-7.062-27.178-12.801C17.917,40.542,13.336,44.815,8.241,49.066z"/>
					<path fill="#EF6FC8" d="M8.241,49.066C3.689,52.861-1.27,56.639-6.678,60.359c6.068,2.594,12.747,4.031,19.763,4.031       c2.435,0,4.829-0.177,7.171-0.51C17.237,59.021,13.309,53.869,8.241,49.066z"/>
				</g>
			</g>
		</g>
		<g>
			<g>
				<defs>
					<polyline id="SVGID_3_" points="35.205,59.82 35.205,16.006 35.205,16.006 22.352,16.006 22.352,59.708 36.356,59.708      "/>
				</defs>
				<clipPath id="SVGID_4_">
					<use xlink:href="#SVGID_3_"/>
				</clipPath>
				<g clip-path="url(#SVGID_4_)">
					<path fill="#245433" d="M33.938,32.447c-8.365-5.261-14.616-10.774-18.884-15.128c-3.565,1.839-6.884,4.089-9.89,6.69       c7.423,5.07,14.99,10.854,22.394,16.978C30.169,38.191,32.262,35.312,33.938,32.447z"/>
					<path fill="#3FB0FB" d="M27.559,40.987C20.155,34.864,12.588,29.08,5.165,24.01C-0.577,28.982-5.181,35.23-8.207,42.312       c4.74,4.751,9.484,9.145,14.195,13.209C15.572,51.464,22.525,46.382,27.559,40.987z"/>
					<path fill="#FEB91A" d="M73.202,47.809c2.628-5.312,4.604-10.243,6.084-14.631c-8.707-12.396-22.866-20.68-38.992-21.377       c-0.4,5.512-1.896,13.022-6.355,20.646C43.934,38.735,56.948,44.659,73.202,47.809z"/>
					<path fill="#EF6FC8" d="M-8.207,42.312c-2.478,5.802-3.896,12.157-4.017,18.836c6.935-1.492,12.968-3.404,18.212-5.627       C1.277,51.457-3.467,47.063-8.207,42.312z"/>
					<path fill="#27E7D8" d="M27.559,40.987c-5.033,5.395-11.986,10.477-21.57,14.535c14.416,12.44,28.5,21.793,41.049,28.771       c4.633-4.774,8.683-9.519,12.222-14.155C49.812,60.51,38.876,50.352,27.559,40.987z"/>
					<path fill="#6DCB13" d="M27.559,40.987c11.317,9.365,22.255,19.522,31.7,29.15c5.996-7.857,10.524-15.418,13.943-22.329       c-16.254-3.149-29.269-9.073-39.264-15.361C32.262,35.312,30.169,38.191,27.559,40.987z"/>
					<path fill="#FE2D15" d="M33.938,32.447c4.46-7.624,5.955-15.135,6.355-20.646c-0.733-0.033-1.469-0.051-2.209-0.051       c-8.3,0-16.13,2.012-23.03,5.569C19.322,21.673,25.573,27.187,33.938,32.447z"/>
					<path fill="#FEB91A" d="M47.037,84.293c-12.549-6.979-26.633-16.33-41.049-28.771c-5.244,2.224-11.277,4.136-18.212,5.627       c-0.006,0.308-0.013,0.615-0.013,0.922c0,5.539,0.898,10.869,2.551,15.854c19.48,2.12,33.268,9.992,42.927,19.145       C38.336,92.814,42.917,88.542,47.037,84.293z"/>
					<path fill="#EF6FC8" d="M59.259,70.139c7.653,7.799,14.327,15.252,19.438,21.647c6.101-8.328,9.709-18.601,9.709-29.716       c0-4.272-0.534-8.424-1.537-12.385c-4.789-0.398-9.344-1.039-13.667-1.877C69.783,54.721,65.255,62.279,59.259,70.139z"/>
					<path fill="#3FB0FB" d="M73.202,47.809c4.323,0.837,8.878,1.479,13.667,1.876c-1.521-6.004-4.12-11.581-7.583-16.507       C77.807,37.565,75.83,42.496,73.202,47.809z"/>
					<path fill="#0844C7" d="M47.037,84.293c10.318,5.739,19.602,9.873,27.178,12.801c1.611-1.662,3.11-3.438,4.482-5.308       c-5.111-6.396-11.785-13.851-19.438-21.647C55.721,74.775,51.67,79.52,47.037,84.293z"/>
					<path fill="#FE2D15" d="M-9.686,77.923c4.549,13.711,14.832,24.804,28.008,30.438c5.408-3.723,10.367-7.498,14.919-11.293       C23.582,87.915,9.795,80.043-9.686,77.923z"/>
					<path fill="#27E7D8" d="M33.241,97.066c5.067,4.803,8.996,9.955,12.015,14.814c11.297-1.613,21.383-6.975,28.959-14.788       c-7.576-2.928-16.859-7.062-27.178-12.801C42.917,88.542,38.336,92.814,33.241,97.066z"/>
				</g>
			</g>
		</g>
		<g>
			<g>
				<defs>
					<polyline id="SVGID_5_" points="48.059,39.498 48.059,9.583 35.205,9.583 35.205,54.452      "/>
				</defs>
				<clipPath id="SVGID_6_">
					<use xlink:href="#SVGID_5_"/>
				</clipPath>
				<g clip-path="url(#SVGID_6_)">
					<path fill="#3FB0FB" d="M2.559-7.013C-4.845-13.136-12.412-18.92-19.835-23.99c-5.742,4.973-10.346,11.221-13.372,18.303       c4.74,4.751,9.484,9.145,14.195,13.209C-9.428,3.464-2.475-1.618,2.559-7.013z"/>
					<path fill="#27E7D8" d="M2.559-7.013C-2.475-1.618-9.428,3.464-19.012,7.521c14.416,12.441,28.5,21.794,41.049,28.771       c4.633-4.774,8.683-9.518,12.222-14.155C24.813,12.51,13.876,2.352,2.559-7.013z"/>
					<path fill="#6DCB13" d="M2.559-7.013c11.317,9.364,22.255,19.522,31.7,29.15C40.255,14.279,44.783,6.72,48.202-0.191       C31.948-3.341,18.934-9.265,8.938-15.553C7.262-12.688,5.169-9.809,2.559-7.013z"/>
					<path fill="#FEB91A" d="M22.037,36.293C9.488,29.315-4.596,19.963-19.012,7.521c-5.244,2.223-11.277,4.135-18.212,5.627       c-0.006,0.307-0.013,0.614-0.013,0.922c0,5.539,0.898,10.869,2.551,15.853c19.48,2.12,33.268,9.992,42.927,19.146       C13.336,44.815,17.917,40.542,22.037,36.293z"/>
					<path fill="#EF6FC8" d="M34.259,22.138c7.653,7.799,14.327,15.252,19.438,21.648c6.101-8.328,9.709-18.601,9.709-29.716       c0-4.272-0.534-8.423-1.537-12.385c-4.789-0.398-9.344-1.039-13.667-1.877C44.783,6.72,40.255,14.279,34.259,22.138z"/>
					<path fill="#3FB0FB" d="M48.202-0.191c4.323,0.838,8.878,1.479,13.667,1.877c-1.521-6.005-4.12-11.581-7.583-16.508       C52.807-10.435,50.83-5.504,48.202-0.191z"/>
					<path fill="#0844C7" d="M22.037,36.293c10.318,5.739,19.601,9.873,27.178,12.801c1.611-1.663,3.11-3.438,4.482-5.308       c-5.111-6.396-11.785-13.85-19.438-21.648C30.72,26.775,26.67,31.519,22.037,36.293z"/>
					<path fill="#FE2D15" d="M-34.686,29.923c4.549,13.711,14.832,24.804,28.008,30.438c5.408-3.723,10.367-7.498,14.919-11.293       C-1.418,39.915-15.205,32.043-34.686,29.923z"/>
					<path fill="#27E7D8" d="M8.241,49.066c5.067,4.803,8.996,9.955,12.015,14.814c11.297-1.613,21.383-6.975,28.959-14.788       c-7.577-2.928-16.859-7.062-27.178-12.801C17.917,40.542,13.336,44.815,8.241,49.066z"/>
					<path fill="#EF6FC8" d="M8.241,49.066C3.689,52.861-1.27,56.639-6.678,60.359c6.068,2.594,12.747,4.031,19.763,4.031       c2.435,0,4.829-0.177,7.171-0.51C17.237,59.021,13.309,53.869,8.241,49.066z"/>
				</g>
			</g>
		</g>
		<g>
			
				<rect x="9.5" y="23.719" fill="none" stroke="#FFFFFF" stroke-width="3" stroke-linecap="round" stroke-linejoin="round" stroke-miterlimit="10" width="12.852" height="35.989"/>
			<path fill="none" stroke="#FFFFFF" stroke-width="3" stroke-linecap="round" stroke-linejoin="round" stroke-miterlimit="10" d="     M35.205,59.82V16.006l0,0H22.352v43.702h14.004"/>
			<path fill="none" stroke="#FFFFFF" stroke-width="3" stroke-linecap="round" stroke-linejoin="round" stroke-miterlimit="10" d="     M48.059,39.498V9.583H35.205v44.869"/>
		</g>
		<g>
			<g>
				<defs>
					<path id="SVGID_7_" d="M63.084,30.606c-0.43-0.027-0.866-0.042-1.289-0.042c-0.421,0-0.859,0.015-1.287,0.042v25.666       c0,0.711,0.579,1.285,1.287,1.285h25.667c0.024-0.423,0.038-0.865,0.038-1.285c0-0.424-0.014-0.861-0.038-1.285       C86.796,41.806,76.264,31.27,63.084,30.606z"/>
				</defs>
				<clipPath id="SVGID_8_">
					<use xlink:href="#SVGID_7_"/>
				</clipPath>
				<g clip-path="url(#SVGID_8_)">
					<path fill="#245433" d="M39.931,31.336c-7.93-4.985-13.854-10.213-17.899-14.34c-3.379,1.745-6.525,3.878-9.374,6.343       c7.036,4.806,14.208,10.288,21.226,16.093C36.357,36.781,38.342,34.052,39.931,31.336z"/>
					<path fill="#3FB0FB" d="M33.883,39.432c-7.018-5.805-14.189-11.287-21.226-16.093C7.215,28.052,2.852,33.976-0.018,40.687       c4.493,4.503,8.99,8.668,13.455,12.521C22.521,49.361,29.112,44.545,33.883,39.432z"/>
					<path fill="#FEB91A" d="M77.146,45.896c2.49-5.035,4.363-9.708,5.767-13.868C74.661,20.279,61.24,12.427,45.955,11.767       c-0.38,5.226-1.797,12.343-6.024,19.569C49.404,37.297,61.74,42.911,77.146,45.896z"/>
					<path fill="#EF6FC8" d="M-0.018,40.687c-2.348,5.5-3.693,11.523-3.807,17.854c6.572-1.414,12.291-3.229,17.262-5.334       C8.973,49.355,4.476,45.189-0.018,40.687z"/>
					<path fill="#27E7D8" d="M33.883,39.432c-4.771,5.113-11.361,9.931-20.445,13.775C27.102,65,40.451,73.865,52.348,80.479       c4.391-4.525,8.229-9.021,11.582-13.416C54.979,57.936,44.61,48.307,33.883,39.432z"/>
					<path fill="#6DCB13" d="M33.883,39.432c10.728,8.875,21.096,18.503,30.047,27.63c5.686-7.448,9.977-14.614,13.217-21.166       c-15.405-2.985-27.742-8.6-37.215-14.561C38.342,34.052,36.357,36.781,33.883,39.432z"/>
					<path fill="#FE2D15" d="M39.931,31.336c4.228-7.227,5.645-14.344,6.024-19.569c-0.695-0.03-1.393-0.048-2.094-0.048       c-7.868,0-15.289,1.907-21.83,5.277C26.076,21.123,32.001,26.351,39.931,31.336z"/>
					<path fill="#FEB91A" d="M52.348,80.479C40.451,73.865,27.102,65,13.438,53.207c-4.971,2.105-10.689,3.92-17.262,5.334       c-0.006,0.29-0.013,0.581-0.013,0.875c0,5.25,0.853,10.301,2.419,15.023c18.464,2.011,31.532,9.473,40.688,18.146       C44.1,88.557,48.441,84.506,52.348,80.479z"/>
					<path fill="#EF6FC8" d="M63.93,67.062c7.256,7.392,13.58,14.455,18.428,20.52c5.781-7.895,9.201-17.631,9.201-28.165       c0-4.051-0.508-7.985-1.457-11.739c-4.541-0.378-8.855-0.985-12.955-1.78C73.904,52.447,69.613,59.613,63.93,67.062z"/>
					<path fill="#3FB0FB" d="M77.146,45.896c4.099,0.795,8.414,1.402,12.955,1.78c-1.441-5.693-3.906-10.978-7.188-15.648       C81.512,36.188,79.637,40.861,77.146,45.896z"/>
					<path fill="#0844C7" d="M52.348,80.479c9.778,5.44,18.578,9.358,25.76,12.135c1.526-1.577,2.949-3.26,4.25-5.031       C77.51,81.52,71.186,74.454,63.93,67.062C60.575,71.456,56.736,75.952,52.348,80.479z"/>
					<path fill="#FE2D15" d="M-1.418,74.439c4.311,12.998,14.059,23.513,26.547,28.853c5.126-3.528,9.826-7.106,14.141-10.705       C30.114,83.912,17.046,76.45-1.418,74.439z"/>
					<path fill="#27E7D8" d="M39.27,92.587c4.803,4.552,8.526,9.435,11.389,14.043c10.707-1.528,20.269-6.61,27.448-14.019       c-7.182-2.774-15.98-6.692-25.76-12.133C48.441,84.506,44.1,88.557,39.27,92.587z"/>
					<path fill="#EF6FC8" d="M39.27,92.587c-4.314,3.599-9.015,7.177-14.141,10.705c5.752,2.456,12.082,3.819,18.732,3.819       c2.307,0,4.577-0.166,6.797-0.481C47.796,102.021,44.072,97.139,39.27,92.587z"/>
				</g>
			</g>
		</g>
		<g>
			<g>
				<defs>
					<path id="SVGID_9_" d="M81.454,60.994H58.359c-0.709,0-1.289-0.576-1.289-1.286V34.043c-3.577,0.178-7.084,1.114-10.275,2.744       c-12.67,6.39-17.756,21.842-11.364,34.511c6.394,12.666,21.844,17.752,34.512,11.356c8.244-4.162,13.629-12.434,14.084-21.66       H81.454L81.454,60.994z"/>
				</defs>
				<clipPath id="SVGID_10_">
					<use xlink:href="#SVGID_9_"/>
				</clipPath>
				<g clip-path="url(#SVGID_10_)">
					<path fill="#245433" d="M56.993,20.91c-7.931-4.985-13.854-10.213-17.9-14.34c-3.38,1.743-6.525,3.875-9.374,6.342       c7.035,4.807,14.209,10.289,21.227,16.093C53.418,26.355,55.4,23.624,56.993,20.91z"/>
					<path fill="#3FB0FB" d="M50.943,29.005c-7.017-5.804-14.189-11.286-21.226-16.093c-5.443,4.714-9.806,10.635-12.675,17.348       c4.493,4.504,8.991,8.67,13.456,12.521C39.583,38.935,46.174,34.118,50.943,29.005z"/>
					<path fill="#FEB91A" d="M94.208,35.471c2.49-5.036,4.364-9.71,5.767-13.868C91.723,9.853,78.302,2,63.016,1.34       c-0.379,5.224-1.797,12.344-6.021,19.57C66.466,26.87,78.802,32.485,94.208,35.471z"/>
					<path fill="#EF6FC8" d="M17.044,30.26c-2.349,5.5-3.693,11.524-3.808,17.855C19.81,46.7,25.528,44.888,30.5,42.781       C26.035,38.93,21.537,34.764,17.044,30.26z"/>
					<path fill="#27E7D8" d="M50.943,29.005c-4.771,5.113-11.36,9.93-20.443,13.776c13.664,11.792,27.014,20.658,38.908,27.271       c4.391-4.526,8.229-9.022,11.583-13.418C72.039,47.51,61.672,37.88,50.943,29.005z"/>
					<path fill="#6DCB13" d="M50.943,29.005c10.729,8.875,21.096,18.505,30.048,27.63c5.685-7.447,9.976-14.613,13.217-21.164       C78.802,32.485,66.466,26.87,56.993,20.91C55.4,23.624,53.418,26.355,50.943,29.005z"/>
					<path fill="#FE2D15" d="M56.993,20.91c4.226-7.227,5.644-14.347,6.021-19.57c-0.693-0.032-1.391-0.047-2.093-0.047       c-7.866,0-15.289,1.906-21.829,5.277C43.139,10.697,49.062,15.925,56.993,20.91z"/>
					<path fill="#FEB91A" d="M69.408,70.053C57.514,63.439,44.164,54.573,30.5,42.781c-4.972,2.106-10.69,3.919-17.264,5.334       c-0.005,0.289-0.011,0.58-0.011,0.871c0,5.253,0.851,10.304,2.418,15.027c18.464,2.01,31.532,9.471,40.687,18.146       C61.16,78.131,65.503,74.08,69.408,70.053z"/>
					<path fill="#EF6FC8" d="M80.991,56.635c7.255,7.393,13.579,14.456,18.427,20.521c5.782-7.896,9.202-17.633,9.202-28.168       c0-4.048-0.509-7.983-1.457-11.737c-4.541-0.377-8.856-0.985-12.955-1.779C90.967,42.021,86.676,49.188,80.991,56.635z"/>
					<path fill="#3FB0FB" d="M94.208,35.471c4.099,0.794,8.414,1.402,12.955,1.779c-1.44-5.693-3.906-10.978-7.188-15.647       C98.572,25.761,96.698,30.435,94.208,35.471z"/>
					<path fill="#0844C7" d="M69.408,70.053c9.779,5.44,18.578,9.357,25.759,12.135c1.526-1.578,2.95-3.262,4.251-5.031       c-4.848-6.064-11.172-13.129-18.427-20.521C77.637,61.029,73.799,65.525,69.408,70.053z"/>
					<path fill="#FE2D15" d="M15.644,64.014c4.312,12.997,14.058,23.512,26.547,28.852c5.126-3.527,9.827-7.106,14.14-10.703       C47.176,73.484,34.107,66.023,15.644,64.014z"/>
					<path fill="#27E7D8" d="M56.33,82.161c4.804,4.551,8.527,9.435,11.391,14.042c10.706-1.529,20.268-6.612,27.446-14.018       c-7.181-2.775-15.979-6.692-25.759-12.134C65.503,74.08,61.16,78.131,56.33,82.161z"/>
					<path fill="#EF6FC8" d="M56.33,82.161c-4.312,3.597-9.014,7.176-14.14,10.703c5.752,2.458,12.082,3.821,18.731,3.821       c2.31,0,4.578-0.168,6.798-0.482C64.857,91.596,61.134,86.712,56.33,82.161z"/>
				</g>
			</g>
		</g>
		<g>
			<g>
				
					<polyline fill="none" stroke="#FFFFFF" stroke-width="3" stroke-linecap="round" stroke-linejoin="round" stroke-miterlimit="10" points="      75.441,15.475 65.012,25.905 59.417,20.817 54.26,25.592     "/>
			</g>
			
				<polyline fill="none" stroke="#FFFFFF" stroke-width="3" stroke-linecap="round" stroke-linejoin="round" stroke-miterlimit="10" points="     77.542,21.517 77.542,13.377 69.4,13.377    "/>
		</g>
	</g>
</g>
</svg>