<svg xmlns="http://www.w3.org/2000/svg" xmlns:xlink="http://www.w3.org/1999/xlink" id="Layer_1" x="0px" y="0px" width="95px" height="95px" viewBox="0 0 95 95" xml:space="preserve">
<g>
	<path fill="#00457C" d="M93,79c0,8.284-6.716,15-15,15H16C7.716,94,1,87.284,1,79V17C1,8.716,7.716,2,16,2h62   c8.284,0,15,6.716,15,15V79z"/>
	<g>
		<g>
			<defs>
				<path id="SVGID_1_" d="M42.879,44.647v4.324c0,0.797-0.645,1.441-1.442,1.441h-5.768c-0.796,0-1.44-0.645-1.44-1.441v-4.324      H42.879z"/>
			</defs>
			<clipPath id="SVGID_2_">
				<use xlink:href="#SVGID_1_"/>
			</clipPath>
			<g clip-path="url(#SVGID_2_)">
				<path fill="#245433" d="M30.626-9.151c-8.527-5.363-14.899-10.983-19.25-15.422c-3.635,1.874-7.018,4.168-10.082,6.82      C8.861-12.584,16.575-6.688,24.122-0.445C26.783-3.296,28.917-6.231,30.626-9.151z"/>
				<path fill="#3FB0FB" d="M24.122-0.445C16.575-6.688,8.861-12.584,1.294-17.753C-4.56-12.684-9.253-6.314-12.338,0.905      c4.833,4.844,9.668,9.322,14.472,13.466C11.904,10.234,18.991,5.054,24.122-0.445z"/>
				<path fill="#FEB91A" d="M70.653,6.509c2.679-5.417,4.692-10.442,6.202-14.915c-8.877-12.637-23.311-21.082-39.75-21.792      c-0.408,5.618-1.933,13.274-6.479,21.047C40.816-2.741,54.084,3.298,70.653,6.509z"/>
				<path fill="#EF6FC8" d="M-12.338,0.905c-2.525,5.914-3.972,12.394-4.095,19.202c7.069-1.521,13.22-3.471,18.566-5.736      C-2.67,10.228-7.505,5.749-12.338,0.905z"/>
				<path fill="#27E7D8" d="M24.122-0.445c-5.131,5.499-12.218,10.68-21.988,14.816C16.83,27.054,31.188,36.589,43.979,43.702      c4.723-4.867,8.851-9.703,12.459-14.431C46.81,19.456,35.66,9.102,24.122-0.445z"/>
				<path fill="#6DCB13" d="M24.122-0.445C35.66,9.102,46.81,19.456,56.438,29.271c6.112-8.011,10.729-15.718,14.215-22.763      c-16.569-3.211-29.837-9.25-40.027-15.66C28.917-6.231,26.783-3.296,24.122-0.445z"/>
				<path fill="#FE2D15" d="M30.626-9.151c4.547-7.772,6.071-15.429,6.479-21.047c-0.748-0.035-1.498-0.053-2.252-0.053      c-8.461,0-16.443,2.051-23.478,5.678C15.727-20.135,22.099-14.515,30.626-9.151z"/>
				<path fill="#FEB91A" d="M43.979,43.702C31.188,36.589,16.83,27.054,2.134,14.371c-5.347,2.266-11.497,4.215-18.566,5.736      c-0.006,0.312-0.013,0.626-0.013,0.939c0,5.646,0.916,11.08,2.601,16.161c19.858,2.16,33.913,10.187,43.761,19.516      C35.109,52.39,39.779,48.033,43.979,43.702z"/>
				<path fill="#EF6FC8" d="M56.438,29.271c7.802,7.95,14.605,15.548,19.816,22.069c6.219-8.491,9.897-18.963,9.897-30.294      c0-4.354-0.544-8.586-1.566-12.625c-4.883-0.406-9.525-1.06-13.933-1.913C67.168,13.554,62.551,21.261,56.438,29.271z"/>
				<path fill="#3FB0FB" d="M70.653,6.509c4.407,0.854,9.05,1.507,13.933,1.913C83.035,2.3,80.385-3.384,76.855-8.406      C75.346-3.934,73.332,1.092,70.653,6.509z"/>
				<path fill="#0844C7" d="M43.979,43.702c10.52,5.85,19.981,10.064,27.706,13.049c1.643-1.695,3.17-3.506,4.569-5.41      c-5.211-6.521-12.015-14.119-19.816-22.069C52.83,33.999,48.702,38.835,43.979,43.702z"/>
				<path fill="#FE2D15" d="M-13.845,37.208c4.637,13.977,15.12,25.285,28.552,31.028c5.513-3.795,10.568-7.644,15.209-11.513      C20.068,47.395,6.014,39.368-13.845,37.208z"/>
				<path fill="#27E7D8" d="M29.916,56.724c5.166,4.896,9.17,10.148,12.247,15.103c11.518-1.645,21.799-7.11,29.522-15.075      c-7.725-2.984-17.187-7.199-27.706-13.049C39.779,48.033,35.109,52.39,29.916,56.724z"/>
				<path fill="#EF6FC8" d="M29.916,56.724c-4.641,3.869-9.696,7.718-15.209,11.513c6.186,2.643,12.995,4.11,20.146,4.11      c2.482,0,4.923-0.181,7.31-0.521C39.086,66.872,35.082,61.619,29.916,56.724z"/>
			</g>
		</g>
		<g>
			<defs>
				<path id="SVGID_3_" d="M42.879,43.724v0.924h-8.65v-0.924c-0.031-2.392-1.022-4.666-2.755-6.314      c-2.027-1.979-3.122-4.725-3.013-7.556c0.269-5.329,4.586-9.558,9.919-9.718c5.572-0.091,10.166,4.354,10.254,9.928      c0.048,2.806-1.077,5.504-3.103,7.446C43.832,39.131,42.873,41.376,42.879,43.724z"/>
			</defs>
			<clipPath id="SVGID_4_">
				<use xlink:href="#SVGID_3_"/>
			</clipPath>
			<g clip-path="url(#SVGID_4_)">
				<path fill="#245433" d="M32.665,31.626c-8.527-5.363-14.9-10.984-19.25-15.422c-3.635,1.874-7.018,4.169-10.082,6.82      C10.9,28.193,18.614,34.09,26.161,40.332C28.822,37.481,30.956,34.546,32.665,31.626z"/>
				<path fill="#3FB0FB" d="M26.161,40.332C18.614,34.09,10.9,28.193,3.333,23.024c-5.854,5.068-10.547,11.438-13.632,18.658      c4.832,4.843,9.668,9.322,14.471,13.465C13.941,51.012,21.03,45.831,26.161,40.332z"/>
				<path fill="#FEB91A" d="M72.692,47.285c2.679-5.415,4.691-10.442,6.202-14.915c-8.877-12.637-23.311-21.081-39.75-21.792      c-0.408,5.618-1.933,13.275-6.479,21.048C42.854,38.036,56.122,44.074,72.692,47.285z"/>
				<path fill="#EF6FC8" d="M-10.299,41.683c-2.525,5.915-3.972,12.394-4.095,19.202c7.069-1.521,13.22-3.471,18.565-5.737      C-0.631,51.005-5.467,46.525-10.299,41.683z"/>
				<path fill="#27E7D8" d="M26.161,40.332c-5.131,5.499-12.22,10.68-21.989,14.815c14.696,12.684,29.055,22.218,41.847,29.331      c4.723-4.867,8.851-9.703,12.459-14.431C48.849,60.233,37.699,49.878,26.161,40.332z"/>
				<path fill="#6DCB13" d="M26.161,40.332c11.538,9.546,22.688,19.901,32.316,29.716c6.112-8.011,10.729-15.718,14.215-22.763      c-16.57-3.211-29.838-9.249-40.027-15.659C30.956,34.546,28.822,37.481,26.161,40.332z"/>
				<path fill="#FE2D15" d="M32.665,31.626c4.547-7.772,6.071-15.43,6.479-21.048c-0.748-0.033-1.498-0.053-2.252-0.053      c-8.462,0-16.443,2.051-23.478,5.679C17.765,20.642,24.138,26.263,32.665,31.626z"/>
				<path fill="#FEB91A" d="M46.019,84.479c-12.792-7.113-27.15-16.647-41.847-29.331c-5.346,2.267-11.496,4.216-18.565,5.737      c-0.006,0.312-0.013,0.626-0.013,0.939c0,5.647,0.915,11.08,2.601,16.16c19.858,2.162,33.913,10.187,43.76,19.517      C37.148,93.166,41.818,88.811,46.019,84.479z"/>
				<path fill="#EF6FC8" d="M58.478,70.048c7.802,7.951,14.605,15.549,19.816,22.069c6.219-8.489,9.897-18.962,9.897-30.293      c0-4.355-0.544-8.587-1.566-12.626c-4.883-0.406-9.525-1.059-13.933-1.913C69.206,54.33,64.59,62.037,58.478,70.048z"/>
				<path fill="#3FB0FB" d="M72.692,47.285c4.407,0.854,9.05,1.507,13.933,1.913c-1.551-6.12-4.201-11.805-7.73-16.828      C77.384,36.843,75.371,41.87,72.692,47.285z"/>
				<path fill="#0844C7" d="M46.019,84.479C56.538,90.329,66,94.544,73.725,97.528c1.643-1.696,3.17-3.506,4.569-5.411      c-5.211-6.521-12.015-14.118-19.816-22.069C54.869,74.775,50.741,79.611,46.019,84.479z"/>
				<path fill="#FE2D15" d="M-11.806,77.984c4.637,13.978,15.12,25.286,28.551,31.029c5.514-3.795,10.569-7.645,15.209-11.513      C22.107,88.171,8.053,80.146-11.806,77.984z"/>
				<path fill="#27E7D8" d="M31.954,97.501c5.166,4.895,9.171,10.147,12.248,15.103c11.518-1.645,21.799-7.11,29.522-15.075      C66,94.544,56.538,90.329,46.019,84.479C41.818,88.811,37.148,93.166,31.954,97.501z"/>
				<path fill="#EF6FC8" d="M31.954,97.501c-4.64,3.868-9.695,7.718-15.209,11.513c6.187,2.644,12.996,4.109,20.147,4.109      c2.481,0,4.923-0.18,7.31-0.52C41.125,107.648,37.12,102.396,31.954,97.501z"/>
			</g>
		</g>
		<path fill="#00457C" d="M42.879,30.229h-2.884c0,0.797-0.645,1.442-1.441,1.442s-1.443-0.646-1.443-1.442h-2.882    c0.007,1.827,1.16,3.452,2.882,4.06v6.032h2.885v-6.032C41.717,33.681,42.872,32.056,42.879,30.229z"/>
		<g>
			<path fill="none" stroke="#FFFFFF" stroke-width="3" stroke-linecap="round" stroke-linejoin="round" stroke-miterlimit="10" d="     M18.034,56.448H47"/>
			<path fill="none" stroke="#FFFFFF" stroke-width="3" stroke-linecap="round" stroke-linejoin="round" stroke-miterlimit="10" d="     M18.034,62.295H47"/>
			<path fill="none" stroke="#FFFFFF" stroke-width="3" stroke-linecap="round" stroke-linejoin="round" stroke-miterlimit="10" d="     M18.034,68.143H47"/>
			<path fill="none" stroke="#FFFFFF" stroke-width="3" stroke-linecap="round" stroke-linejoin="round" stroke-miterlimit="10" d="     M18.034,73.989H47"/>
		</g>
		<path fill="none" stroke="#FFFFFF" stroke-width="3" stroke-linecap="round" stroke-linejoin="round" stroke-miterlimit="10" d="    M60.276,13c2.666,0,4.827,2.162,4.827,4.828v60.344c0.001,0.979-0.299,1.937-0.857,2.739c-0.164,0.242-0.351,0.468-0.555,0.677    c-0.907,0.904-2.135,1.409-3.416,1.412H16.828C14.162,83,12,80.838,12,78.172V17.828C12,15.162,14.162,13,16.828,13H60.276z"/>
		<g>
			<defs>
				<path id="SVGID_5_" d="M77.992,70.291c-0.282,1.111-0.726,2.179-1.314,3.162l2.438,3.247L75.7,80.116l-3.247-2.438      c-0.983,0.589-2.051,1.032-3.162,1.314L68.725,83h-4.828l-0.205-1.412l-0.361-2.596c-1.113-0.282-2.179-0.726-3.163-1.314      l-3.248,2.438L53.505,76.7l2.439-3.247c-0.591-0.983-1.033-2.051-1.316-3.162l-4.007-0.566v-4.828l4.007-0.566      c0.283-1.113,0.726-2.179,1.316-3.163l-2.439-3.248l3.414-3.414l3.248,2.439c0.984-0.591,2.05-1.033,3.163-1.316l0.566-4.007      h4.828l0.566,4.007c1.111,0.283,2.179,0.726,3.162,1.316l3.247-2.439l3.416,3.414l-2.438,3.248      c0.589,0.984,1.032,2.05,1.314,3.163L82,64.896v4.828L77.992,70.291z"/>
			</defs>
			<clipPath id="SVGID_6_">
				<use xlink:href="#SVGID_5_"/>
			</clipPath>
			<g clip-path="url(#SVGID_6_)">
				<path fill="#245433" d="M92.812,44.878c-8.528-5.362-14.9-10.983-19.25-15.422c-3.636,1.875-7.019,4.168-10.082,6.82      c7.566,5.17,15.281,11.065,22.828,17.308C88.969,50.734,91.102,47.799,92.812,44.878z"/>
				<path fill="#3FB0FB" d="M86.308,53.584c-7.547-6.242-15.262-12.138-22.828-17.308c-5.854,5.069-10.547,11.439-13.632,18.658      c4.832,4.844,9.668,9.323,14.471,13.466C74.088,64.265,81.177,59.084,86.308,53.584z"/>
				<path fill="#FEB91A" d="M132.838,60.538c2.679-5.416,4.692-10.442,6.202-14.915c-8.876-12.637-23.311-21.081-39.75-21.793      c-0.408,5.619-1.932,13.275-6.479,21.048C103.001,51.289,116.268,57.327,132.838,60.538z"/>
				<path fill="#EF6FC8" d="M49.848,54.935c-2.525,5.915-3.972,12.394-4.095,19.202c7.068-1.521,13.219-3.471,18.565-5.736      C59.516,64.258,54.68,59.778,49.848,54.935z"/>
				<path fill="#27E7D8" d="M86.308,53.584c-5.131,5.5-12.22,10.681-21.989,14.816c14.695,12.684,29.054,22.218,41.846,29.331      c4.724-4.867,8.852-9.703,12.46-14.431C108.995,73.486,97.845,63.13,86.308,53.584z"/>
				<path fill="#6DCB13" d="M86.308,53.584c11.537,9.546,22.688,19.902,32.316,29.717c6.112-8.011,10.729-15.718,14.214-22.763      c-16.57-3.211-29.837-9.249-40.026-15.66C91.102,47.799,88.969,50.734,86.308,53.584z"/>
				<path fill="#FE2D15" d="M92.812,44.878c4.547-7.772,6.07-15.429,6.479-21.048c-0.747-0.033-1.497-0.052-2.252-0.052      c-8.461,0-16.443,2.051-23.477,5.678C77.911,33.895,84.283,39.516,92.812,44.878z"/>
				<path fill="#FEB91A" d="M106.164,97.731C93.372,90.618,79.014,81.084,64.318,68.4c-5.347,2.266-11.497,4.216-18.565,5.736      c-0.006,0.313-0.013,0.626-0.013,0.94c0,5.646,0.915,11.08,2.601,16.16c19.858,2.161,33.913,10.187,43.76,19.517      C97.295,106.419,101.965,102.063,106.164,97.731z"/>
				<path fill="#EF6FC8" d="M118.624,83.301c7.802,7.95,14.604,15.549,19.816,22.069c6.219-8.49,9.896-18.962,9.896-30.293      c0-4.355-0.545-8.587-1.567-12.626c-4.881-0.406-9.523-1.059-13.932-1.913C129.353,67.583,124.736,75.29,118.624,83.301z"/>
				<path fill="#3FB0FB" d="M132.838,60.538c4.408,0.854,9.051,1.507,13.932,1.913c-1.549-6.121-4.199-11.807-7.729-16.828      C137.53,50.096,135.517,55.122,132.838,60.538z"/>
				<path fill="#0844C7" d="M106.164,97.731c10.519,5.851,19.982,10.064,27.706,13.049c1.643-1.695,3.171-3.505,4.57-5.41      c-5.212-6.521-12.015-14.119-19.816-22.069C115.016,88.028,110.888,92.864,106.164,97.731z"/>
				<path fill="#FE2D15" d="M48.341,91.237c4.636,13.978,15.119,25.285,28.551,31.028c5.514-3.794,10.569-7.644,15.209-11.512      C82.254,101.424,68.199,93.398,48.341,91.237z"/>
				<path fill="#27E7D8" d="M92.101,110.754c5.166,4.895,9.171,10.147,12.248,15.103c11.516-1.645,21.799-7.11,29.521-15.076      c-7.724-2.984-17.188-7.198-27.706-13.049C101.965,102.063,97.295,106.419,92.101,110.754z"/>
				<path fill="#EF6FC8" d="M92.101,110.754c-4.64,3.868-9.695,7.718-15.209,11.512c6.187,2.644,12.995,4.109,20.146,4.109      c2.482,0,4.924-0.179,7.311-0.519C101.271,120.901,97.267,115.648,92.101,110.754z"/>
			</g>
		</g>
		<path fill="#00457C" d="M66.31,61.275c-0.404-0.002-0.809,0.038-1.206,0.12c-3.267,0.664-5.378,3.85-4.713,7.115    c0.482,2.376,2.338,4.231,4.713,4.714c0.397,0.082,0.802,0.123,1.206,0.12c3.334,0,6.035-2.701,6.035-6.035    C72.345,63.977,69.644,61.275,66.31,61.275L66.31,61.275z"/>
		<path fill="none" d="M42.879,44.647v4.324c0,0.797-0.645,1.441-1.442,1.441h-5.768c-0.796,0-1.44-0.645-1.44-1.441v-4.324H42.879z    "/>
		<path fill="none" d="M42.879,43.724v0.924h-8.65v-0.924c-0.031-2.392-1.022-4.666-2.755-6.314    c-2.027-1.979-3.122-4.725-3.013-7.556c0.269-5.329,4.586-9.558,9.919-9.718c5.572-0.091,10.166,4.354,10.254,9.928    c0.048,2.806-1.077,5.504-3.103,7.446C43.832,39.131,42.873,41.376,42.879,43.724z"/>
		<path fill="none" stroke="#FFFFFF" stroke-width="3" stroke-linecap="round" stroke-linejoin="round" stroke-miterlimit="10" d="    M42.122,44.647h-7.137"/>
	</g>
</g>
</svg>